HIERARCHY
ROOT Hips
{
	OFFSET 0.000000 0.000000 0.000000
	CHANNELS 6 Xposition Yposition Zposition Xrotation Yrotation Zrotation
	JOINT LeftUpLeg_virtual
	{
		OFFSET 0.000000 0.000000 0.000000
		CHANNELS 3 Xrotation Yrotation Zrotation
		JOINT LeftUpLeg
		{
			OFFSET 15.427100 -6.655098 0.678600
			CHANNELS 3 Xrotation Yrotation Zrotation
			JOINT LeftLeg
			{
				OFFSET 4.081073 -39.591068 13.024000
				CHANNELS 3 Xrotation Yrotation Zrotation
				JOINT LeftFoot
				{
					OFFSET -4.081074 -37.707932 -15.979700
					CHANNELS 3 Xrotation Yrotation Zrotation
					JOINT LeftToeBase
					{
						OFFSET 5.346399 -15.068900 20.645000
						CHANNELS 3 Xrotation Yrotation Zrotation
						JOINT LeftToe_End
						{
							OFFSET 2.754700 0.931300 11.300900
							CHANNELS 3 Xrotation Yrotation Zrotation
							End Site
							{
								OFFSET 0 0 0
							}
						}
					}
				}
			}
		}
	}
	JOINT RightUpLeg_virtual
	{
		OFFSET 0.000000 0.000000 0.000000
		CHANNELS 3 Xrotation Yrotation Zrotation
		JOINT RightUpLeg
		{
			OFFSET -15.569500 -6.655098 0.678600
			CHANNELS 3 Xrotation Yrotation Zrotation
			JOINT RightLeg
			{
				OFFSET -4.081825 -39.591045 13.023800
				CHANNELS 3 Xrotation Yrotation Zrotation
				JOINT RightFoot
				{
					OFFSET 4.081824 -37.707954 -15.979600
					CHANNELS 3 Xrotation Yrotation Zrotation
					JOINT RightToeBase
					{
						OFFSET -5.346400 -15.068900 20.645000
						CHANNELS 3 Xrotation Yrotation Zrotation
						JOINT RightToe_End
						{
							OFFSET -2.754700 0.931300 11.300900
							CHANNELS 3 Xrotation Yrotation Zrotation
							End Site
							{
								OFFSET 0 0 0
							}
						}
					}
				}
			}
		}
	}
	JOINT Spine_virtual
	{
		OFFSET 0.000000 0.000000 0.000000
		CHANNELS 3 Xrotation Yrotation Zrotation
		JOINT Spine
		{
			OFFSET -0.279200 12.230698 -2.892100
			CHANNELS 3 Xrotation Yrotation Zrotation
			JOINT Spine1
			{
				OFFSET -0.232667 10.192268 -1.242267
				CHANNELS 3 Xrotation Yrotation Zrotation
				JOINT Spine1_split
				{
					OFFSET -0.232667 10.192268 -1.242267
					CHANNELS 3 Xrotation Yrotation Zrotation
					JOINT Spine2
					{
						OFFSET -0.232667 10.192268 -1.242267
						CHANNELS 3 Xrotation Yrotation Zrotation
						JOINT Neck_virtual
						{
							OFFSET 0.000000 0.000000 0.000000
							CHANNELS 3 Xrotation Yrotation Zrotation
							JOINT Neck
							{
								OFFSET -0.418800 17.814194 8.416900
								CHANNELS 3 Xrotation Yrotation Zrotation
								JOINT Head
								{
									OFFSET 0.000000 7.031097 3.806800
									CHANNELS 3 Xrotation Yrotation Zrotation
									JOINT HeadTop_End
									{
										OFFSET 0.000000 24.646606 12.978600
										CHANNELS 3 Xrotation Yrotation Zrotation
										End Site
										{
											OFFSET 0 0 0
										}
									}
								}
							}
						}
						JOINT LeftShoulder_virtual
						{
							OFFSET 0.000000 0.000000 0.000000
							CHANNELS 3 Xrotation Yrotation Zrotation
							JOINT LeftShoulder
							{
								OFFSET 8.476499 7.247704 -3.868750
								CHANNELS 3 Xrotation Yrotation Zrotation
								JOINT LeftShoulder_split
								{
									OFFSET 8.476499 7.247704 -3.868750
									CHANNELS 3 Xrotation Yrotation Zrotation
									JOINT LeftArm
									{
										OFFSET 9.308998 -2.777710 0.208600
										CHANNELS 3 Xrotation Yrotation Zrotation
										JOINT LeftForeArm
										{
											OFFSET 29.972298 0.000000 0.000000
											CHANNELS 3 Xrotation Yrotation Zrotation
											JOINT LeftHand
											{
												OFFSET 26.026505 0.000000 0.000000
												CHANNELS 3 Xrotation Yrotation Zrotation
												End Site
												{
													OFFSET 0 0 0
												}
											}
										}
									}
								}
							}
						}
						JOINT RightShoulder_virtual
						{
							OFFSET 0.000000 0.000000 0.000000
							CHANNELS 3 Xrotation Yrotation Zrotation
							JOINT RightShoulder
							{
								OFFSET -7.570500 7.247704 -3.868750
								CHANNELS 3 Xrotation Yrotation Zrotation
								JOINT RightShoulder_split
								{
									OFFSET -7.570500 7.247704 -3.868750
									CHANNELS 3 Xrotation Yrotation Zrotation
									JOINT RightArm
									{
										OFFSET -9.308998 -2.777710 0.208500
										CHANNELS 3 Xrotation Yrotation Zrotation
										JOINT RightForeArm
										{
											OFFSET -29.972300 0.000000 0.000000
											CHANNELS 3 Xrotation Yrotation Zrotation
											JOINT RightHand
											{
												OFFSET -26.026505 0.000000 0.000000
												CHANNELS 3 Xrotation Yrotation Zrotation
												End Site
												{
													OFFSET 0 0 0
												}
											}
										}
									}
								}
							}
						}
					}
				}
			}
		}
	}
}
MOTION
Frames: 7
Frame Time: 0.03333333
0.771420 91.391792 -3.986542 0.000000 0.000000 0.000000 -2.923721 2.521017 1.372476 -7.915067 8.637701 7.892348 24.079659 -2.691787 -2.424494 -14.930840 0.760843 -3.406155 -0.852809 -0.036770 0.815117 0.000000 0.000000 0.000000 -3.164048 2.889895 1.090485 0.421868 -4.404252 -6.789007 19.416141 -6.983472 3.842025 -14.154986 -19.530383 2.871191 -1.132216 -0.016832 0.245151 0.000000 0.000000 0.000000 -2.990721 1.913710 0.930285 -0.080722 -2.019065 -3.035656 0.652444 -0.325393 1.885746 1.229212 -0.236100 -0.099864 0.000000 0.000000 0.000000 -0.097059 -0.234476 1.622079 6.793859 0.496766 -0.353266 -2.460085 1.557500 2.497777 0.000000 0.000000 0.000000 0.206172 -0.038090 1.331492 5.993431 -25.439174 -5.659870 -1.753299 -1.992870 -1.888717 8.977355 5.489344 -79.045404 -1.884189 -14.400643 1.857889 0.000000 0.000000 0.000000 0.264964 -0.023779 2.085117 2.747482 -6.121793 9.254586 -0.298034 3.659489 -0.381293 8.137879 19.512865 71.569345 1.374116 14.534571 -0.066425 0.000000 0.000000 0.000000 
0.611529 91.371147 -3.994967 0.000000 0.000000 0.000000 -2.905305 2.563584 1.369212 -7.905897 8.782051 7.926166 24.048362 -2.741929 -2.498299 -14.968462 0.688194 -3.379720 -0.794941 -0.040435 0.841025 0.000000 0.000000 0.000000 -3.139465 2.912316 1.092072 0.444951 -4.465553 -6.718706 19.500089 -7.040682 3.868575 -14.215972 -19.497192 2.756740 -1.095448 0.001728 0.224602 0.000000 0.000000 0.000000 -2.986551 1.820680 1.019060 -0.157779 -2.022431 -3.087261 0.593316 -0.331001 1.856207 1.173066 -0.251806 -0.093824 0.000000 0.000000 0.000000 -0.114154 -0.223955 1.597992 6.874342 0.517571 -0.419777 -2.378363 1.629563 2.415614 0.000000 0.000000 0.000000 0.181174 -0.041038 1.307788 6.072842 -25.447425 -5.645264 -1.749164 -1.747329 -2.099407 8.850230 5.261480 -79.188312 -1.877433 -14.623204 1.880627 0.000000 0.000000 0.000000 0.233816 -0.022523 2.104434 2.734212 -6.114782 9.206296 -0.355193 3.941271 -0.418166 8.362986 19.359203 71.581953 1.418330 14.471217 -0.136533 0.000000 0.000000 0.000000 
0.432850 91.342369 -3.961279 0.000000 0.000000 0.000000 -2.914289 2.571858 1.349285 -7.813426 8.912769 7.991192 23.939227 -2.762974 -2.512322 -14.982797 0.649063 -3.347715 -0.761898 -0.045988 0.845328 0.000000 0.000000 0.000000 -3.102952 2.878677 1.083710 0.478210 -4.448864 -6.708985 19.561027 -7.040308 3.930674 -14.014481 -19.426342 2.843634 -1.303012 0.026411 0.158327 0.000000 0.000000 0.000000 -2.995019 1.791675 1.085486 -0.231926 -1.975334 -3.130272 0.491733 -0.328245 1.829058 1.120771 -0.202990 -0.034313 0.000000 0.000000 0.000000 -0.170688 -0.205106 1.590988 6.907734 0.531846 -0.491842 -2.281009 1.560623 2.347632 0.000000 0.000000 0.000000 0.124678 -0.029081 1.302984 6.109027 -25.500641 -5.701234 -1.809358 -1.538885 -2.304777 8.942243 4.786476 -79.193147 -1.765286 -14.854459 1.891191 0.000000 0.000000 0.000000 0.189978 -0.010364 2.107410 2.693515 -6.019884 9.195798 -0.320754 4.066660 -0.505598 8.442448 19.393071 71.428916 1.387597 14.448382 -0.118012 0.000000 0.000000 0.000000 
0.289586 91.318077 -3.880348 0.000000 0.000000 0.000000 -2.945367 2.531259 1.309819 -7.658712 8.999787 8.078913 23.776452 -2.730521 -2.457540 -14.971157 0.635899 -3.307581 -0.764103 -0.052309 0.828533 0.000000 0.000000 0.000000 -3.044906 2.836457 1.061817 0.548110 -4.380258 -6.729748 19.566117 -7.014242 3.998495 -13.686371 -19.331532 3.011992 -1.643193 0.055429 0.075528 0.000000 0.000000 0.000000 -2.994661 1.822644 1.111745 -0.265508 -1.903729 -3.157941 0.369628 -0.323451 1.807927 1.117368 -0.204553 0.073770 0.000000 0.000000 0.000000 -0.257865 -0.181804 1.604381 6.901451 0.556589 -0.553021 -2.161795 1.381882 2.302400 0.000000 0.000000 0.000000 0.034930 -0.008948 1.318737 6.107726 -25.600850 -5.778155 -1.897428 -1.343854 -2.506727 9.201157 4.191146 -78.999641 -1.597498 -15.067008 1.841812 0.000000 0.000000 0.000000 0.122329 0.002297 2.095526 2.632179 -5.844551 9.271192 -0.201884 3.962548 -0.546572 8.378024 19.556590 71.175475 1.284961 14.561478 -0.030417 0.000000 0.000000 0.000000 
0.208456 91.312683 -3.764246 0.000000 0.000000 0.000000 -2.966903 2.460923 1.249139 -7.474337 8.999859 8.170759 23.601913 -2.637337 -2.324796 -14.947934 0.625964 -3.266041 -0.799623 -0.058466 0.800251 0.000000 0.000000 0.000000 -2.975138 2.813778 1.019939 0.637941 -4.330774 -6.745550 19.539856 -7.019166 4.054757 -13.363931 -19.246517 3.124324 -1.913677 0.088134 0.000882 0.000000 0.000000 0.000000 -2.964183 1.859185 1.088493 -0.227272 -1.834714 -3.162652 0.243331 -0.323878 1.794154 1.133286 -0.214903 0.135145 0.000000 0.000000 0.000000 -0.371079 -0.163671 1.635181 6.855286 0.591352 -0.589672 -2.051151 1.147727 2.275739 0.000000 0.000000 0.000000 -0.074715 0.011876 1.350455 6.100817 -25.739626 -5.775703 -1.932538 -1.157089 -2.709111 9.563085 3.553340 -78.599829 -1.456964 -15.311087 1.692276 0.000000 0.000000 0.000000 0.027092 0.007189 2.072888 2.553472 -5.623473 9.436437 -0.012540 3.688594 -0.556082 8.152745 19.798277 70.895560 1.131032 14.952387 0.128425 0.000000 0.000000 0.000000 
0.188339 91.313744 -3.647333 0.000000 0.000000 0.000000 -2.959997 2.383079 1.171339 -7.278060 8.866276 8.235000 23.461785 -2.475202 -2.103637 -14.956709 0.599453 -3.224194 -0.837414 -0.064640 0.767617 0.000000 0.000000 0.000000 -2.915163 2.801991 0.966531 0.676515 -4.359496 -6.745994 19.569303 -7.071669 4.121756 -13.096702 -19.170640 3.182646 -2.051194 0.119909 -0.053220 0.000000 0.000000 0.000000 -2.906964 1.860598 1.016601 -0.087537 -1.790687 -3.146859 0.126045 -0.335770 1.781807 1.209850 -0.196703 0.199766 0.000000 0.000000 0.000000 -0.508217 -0.155442 1.671784 6.776089 0.643893 -0.603678 -1.950378 0.908210 2.265932 0.000000 0.000000 0.000000 -0.196241 0.027318 1.388673 6.114933 -25.912320 -5.633509 -1.874039 -0.995980 -2.876247 9.929238 2.936900 -78.057574 -1.379914 -15.535885 1.440506 0.000000 0.000000 0.000000 -0.094250 0.001988 2.041286 2.464352 -5.404178 9.658514 0.289303 3.372331 -0.504457 7.736579 20.026156 70.679993 0.964128 15.623323 0.336553 0.000000 0.000000 0.000000 
0.234124 91.303322 -3.557310 0.000000 0.000000 0.000000 -2.927247 2.304076 1.090553 -7.061910 8.588533 8.223918 23.398379 -2.234758 -1.800173 -15.055972 0.543276 -3.205078 -0.858346 -0.065485 0.731678 0.000000 0.000000 0.000000 -2.891811 2.758468 0.907098 0.603271 -4.513174 -6.745542 19.760646 -7.135323 4.206521 -12.884871 -19.058818 3.291626 -2.197351 0.148047 -0.104685 0.000000 0.000000 0.000000 -2.835199 1.780768 0.912642 0.171367 -1.789595 -3.116392 0.029224 -0.352323 1.769793 1.327504 -0.072763 0.177151 0.000000 0.000000 0.000000 -0.651984 -0.155604 1.700125 6.666271 0.708404 -0.593338 -1.848380 0.683698 2.262063 0.000000 0.000000 0.000000 -0.310143 0.038722 1.424994 6.163383 -26.070041 -5.329796 -1.731128 -0.856545 -3.035774 10.199591 2.343544 -77.495982 -1.348777 -15.784203 1.138458 0.000000 0.000000 0.000000 -0.215565 -0.008263 1.997929 2.366051 -5.232482 9.897823 0.643172 3.107256 -0.401672 7.120118 20.125007 70.504833 0.821014 16.384413 0.551654 0.000000 0.000000 0.000000 
